<svg width="20" height="19" viewBox="0 0 20 19" fill="none" xmlns="http://www.w3.org/2000/svg">
<path d="M3.30001 14.2348V7.68506C3.30001 4.80866 3.30001 3.37045 4.26657 2.47687C5.23313 1.58328 6.78878 1.58328 9.90009 1.58328C13.0114 1.58328 14.5671 1.58328 15.5336 2.47687C16.5002 3.37045 16.5002 4.80866 16.5002 7.68506V14.2348C16.5002 16.0602 16.5002 16.9729 15.8626 17.2996C14.6278 17.9323 12.3118 15.8215 11.2119 15.186C10.574 14.8174 10.255 14.6331 9.90009 14.6331C9.54517 14.6331 9.22622 14.8174 8.58832 15.186C7.48842 15.8215 5.17234 17.9323 3.93761 17.2996C3.30001 16.9729 3.30001 16.0602 3.30001 14.2348Z" stroke="#101419" stroke-width="1.20562" stroke-linecap="round" stroke-linejoin="round"/>
</svg>
