<svg width="29" height="30" viewBox="0 0 29 30" fill="none" xmlns="http://www.w3.org/2000/svg">
<path fill-rule="evenodd" clip-rule="evenodd" d="M5.16043 27.3917L2.05537 23.3748C1.3083 22.4084 0.902826 21.22 0.902826 19.9968V5.45157C0.902826 3.61937 2.31443 2.09905 4.1355 1.96994L18.5365 0.948939C19.5827 0.874763 20.6225 1.16354 21.482 1.76693L26.5417 5.31931C27.4474 5.9552 27.9869 6.99469 27.9869 8.10401V24.6405C27.9869 26.4335 26.5989 27.9181 24.8159 28.0321L8.83243 29.0538C7.40961 29.1447 6.03434 28.5222 5.16043 27.3917Z" fill="white"/>
<path d="M10.1549 12.73V12.5396C10.1549 12.0569 10.5272 11.6565 11.007 11.6233L14.502 11.381L19.3354 18.772V12.2851L18.0913 12.1129V12.0224C18.0913 11.5341 18.4721 11.1311 18.9581 11.1052L22.1382 10.9361V11.4113C22.1382 11.6344 21.9784 11.8252 21.7595 11.8637L20.9942 11.9981V22.5034L20.0338 22.8464C19.2314 23.133 18.3381 22.8262 17.8788 22.1065L13.1864 14.7536V21.7715L14.6307 22.0585L14.6106 22.1977C14.5476 22.6334 14.1853 22.963 13.747 22.9832L10.1549 23.1493C10.1074 22.6807 10.4456 22.2614 10.9121 22.2106L11.3847 22.159V12.8018L10.1549 12.73Z" fill="black"/>
<path fill-rule="evenodd" clip-rule="evenodd" d="M18.6654 2.78134L4.26443 3.80234C3.40182 3.8635 2.73316 4.58365 2.73316 5.45153V19.9967C2.73316 20.8122 3.00348 21.6045 3.50153 22.2488L6.60659 26.2656C7.10862 26.9151 7.89867 27.2727 8.71603 27.2204L24.6995 26.1988C25.5187 26.1464 26.1564 25.4643 26.1564 24.6405V8.10397C26.1564 7.59429 25.9086 7.11668 25.4924 6.82452L20.4327 3.27213C19.917 2.9101 19.2931 2.73683 18.6654 2.78134ZM4.97854 5.67841C4.77825 5.52442 4.87357 5.20362 5.12519 5.18488L18.7623 4.16914C19.1967 4.13678 19.6285 4.26103 19.9799 4.51955L22.7161 6.5326C22.8199 6.60903 22.7712 6.77401 22.6426 6.78127L8.201 7.59688C7.76395 7.62157 7.33256 7.48823 6.98506 7.22107L4.97854 5.67841ZM7.52363 10.1538C7.52363 9.66657 7.90266 9.26414 8.38734 9.23672L23.6562 8.37322C24.1286 8.3465 24.5262 8.72373 24.5262 9.19856V23.5174C24.5262 24.0037 24.1485 24.4057 23.6648 24.4343L8.49261 25.3308C7.96693 25.3619 7.52363 24.9424 7.52363 24.4139V10.1538Z" fill="black"/>
</svg>
