<svg width="29" height="30" viewBox="0 0 29 30" fill="none" xmlns="http://www.w3.org/2000/svg">
<path d="M16.7555 1.95252L16.7439 7.72801L16.7324 13.5035L16.2015 12.1628V12.1593L15.5129 25.0167C16.19 26.7218 16.5516 27.6328 16.5554 27.6363C16.5593 27.6397 16.944 27.6603 17.4095 27.681C18.8175 27.7428 20.5641 27.8769 21.8913 28.0247C22.1991 28.0591 22.4607 28.0763 22.4799 28.0626C22.4992 28.0488 22.503 22.1702 22.4992 14.9955L22.4876 1.95252H16.7555Z" fill="url(#paint0_linear_0_192)"/>
<path d="M6.38614 1.9352V14.992C6.38614 22.1735 6.39384 28.0556 6.40538 28.0659C6.41692 28.0763 6.9132 28.0316 7.51334 27.9731C8.11349 27.9147 8.94061 27.839 9.35225 27.8081C9.98318 27.76 11.8759 27.6534 12.0914 27.65C12.1568 27.65 12.1606 27.3578 12.1683 22.1185L12.1799 16.5871L12.6377 17.7422C12.7069 17.921 12.73 17.976 12.7992 18.1513L13.4879 5.29737C13.3417 4.92953 13.4186 5.12204 13.2532 4.70263C12.6915 3.28282 12.2145 2.08303 12.1953 2.02802L12.1568 1.93176H6.38614V1.9352Z" fill="url(#paint1_linear_0_192)"/>
<path d="M6.38614 1.9352L12.176 16.5973V16.5905L12.6339 17.7456C15.1768 24.1776 16.5425 27.6292 16.5502 27.6361C16.5541 27.6395 16.9388 27.6601 17.4043 27.6807C18.8123 27.7426 20.5589 27.8767 21.8862 28.0245C22.1901 28.0589 22.4555 28.0761 22.4709 28.0623L16.731 13.4999V13.5033L16.2001 12.1626C15.6808 10.8528 15.3345 9.97617 13.2455 4.70262C12.6839 3.28281 12.2068 2.08303 12.1876 2.02802L12.1491 1.93176H9.26763L6.38614 1.9352Z" fill="#E30A17"/>
<defs>
<linearGradient id="paint0_linear_0_192" x1="25.0846" y1="21.4785" x2="15.801" y2="25.4046" gradientUnits="userSpaceOnUse">
<stop stop-color="#B20610"/>
<stop offset="0.255959" stop-color="#B20610"/>
<stop offset="1" stop-color="#590004"/>
</linearGradient>
<linearGradient id="paint1_linear_0_192" x1="3.60401" y1="7.66045" x2="13.6416" y2="3.46448" gradientUnits="userSpaceOnUse">
<stop stop-color="#B20610"/>
<stop offset="0.255959" stop-color="#B20610"/>
<stop offset="1" stop-color="#590004"/>
</linearGradient>
</defs>
</svg>
