<svg width="29" height="30" viewBox="0 0 29 30" fill="none" xmlns="http://www.w3.org/2000/svg">
<path d="M27.0841 17.8125C27.0841 11.25 23.9242 6.5625 19.8616 6.5625C16.7018 6.5625 14.4448 10.3125 14.4448 10.3125C12.6392 13.125 12.6392 18.2813 15.3476 12.6562C15.3476 12.6562 17.6046 8.90625 19.8616 8.90625C23.0214 8.90625 24.6865 14.5313 24.6865 17.8125C24.6865 18.75 24.3756 20.625 22.57 20.625V23.4375C24.3756 23.4375 27.0841 22.0313 27.0841 17.8125Z" fill="url(#paint0_radial_1_4705)"/>
<path d="M9.02806 6.5625V9.375C6.1391 9.75 4.51406 14.5313 4.51406 17.8125C4.51406 18.75 4.96546 20.625 6.31966 20.625C8.57666 20.625 11.172 15.45 13.5421 11.6649C14.8003 9.65559 16.0526 11.3809 15.0977 13.125C12.8349 17.2576 10.5692 23.4375 6.31966 23.4375C4.51406 23.4375 1.80565 22.0313 1.80565 17.8125C1.80565 9.375 6.77106 6.5625 9.02806 6.5625Z" fill="url(#paint1_radial_1_4705)"/>
<path d="M22.57 20.625C19.4102 20.625 15.799 6.5625 9.02802 6.5625V9.375C14.4448 9.375 16.7018 23.4375 22.57 23.4375V20.625Z" fill="#0768E1"/>
<defs>
<radialGradient id="paint0_radial_1_4705" cx="0" cy="0" r="1" gradientUnits="userSpaceOnUse" gradientTransform="translate(22.57 22.5) rotate(-100.902) scale(16.7078 12.549)">
<stop stop-color="#0768E1"/>
<stop offset="1" stop-color="#0082FB"/>
</radialGradient>
<radialGradient id="paint1_radial_1_4705" cx="0" cy="0" r="1" gradientUnits="userSpaceOnUse" gradientTransform="translate(9.02806 8.4375) rotate(153.688) scale(10.5751 5.67749)">
<stop stop-color="#0768E1"/>
<stop offset="1" stop-color="#0082FB"/>
</radialGradient>
</defs>
</svg>
