<svg width="29" height="30" viewBox="0 0 29 30" fill="none" xmlns="http://www.w3.org/2000/svg">
<ellipse cx="14.4449" cy="15" rx="12.6392" ry="13.125" fill="#FFFA37"/>
<path fill-rule="evenodd" clip-rule="evenodd" d="M18.9819 7.67389C18.1102 6.53323 16.6723 5.62498 14.4554 5.62498C12.5572 5.64439 8.76059 6.7354 8.76059 10.9441C8.76059 11.5588 8.80744 12.382 8.84838 12.9882C8.80013 12.9737 8.74081 12.9464 8.6468 12.8996L8.63375 12.8931C8.46751 12.8102 8.21475 12.6842 7.86322 12.6842C7.50811 12.6842 7.16474 12.8287 6.90982 13.0428C6.65644 13.2557 6.43998 13.5829 6.43998 13.9786C6.43998 14.4735 6.70818 14.802 7.02179 15.0127C7.30034 15.1998 7.65159 15.3193 7.92963 15.4139L7.95713 15.4232C8.25475 15.5246 8.47288 15.6019 8.62328 15.6992C8.74034 15.775 8.75811 15.8229 8.76031 15.8685C8.75879 15.875 8.75521 15.8889 8.74742 15.9116C8.73137 15.9585 8.70467 16.0218 8.66564 16.1009C8.58781 16.2588 8.4743 16.4529 8.33928 16.6599C8.06688 17.0776 7.73445 17.5059 7.48614 17.754C7.2412 17.9987 6.83928 18.3027 6.41906 18.5448C6.21067 18.6648 6.00688 18.7642 5.82458 18.8325C5.63639 18.9031 5.49848 18.9299 5.41327 18.9299C5.34581 18.9299 5.28743 18.9443 5.26195 18.951C5.22614 18.9603 5.18907 18.9725 5.1524 18.9868C5.07968 19.0152 4.993 19.0578 4.90715 19.1178C4.74311 19.2324 4.51401 19.4636 4.51401 19.8283C4.51401 20.0186 4.55704 20.1798 4.63142 20.3195C4.69652 20.4419 4.78022 20.5348 4.82839 20.5882L4.83554 20.5961L4.84887 20.611C5.11379 20.907 5.5523 21.1129 5.97801 21.2542C6.3438 21.3756 6.75277 21.4661 7.15129 21.5204C7.15692 21.5471 7.1628 21.5758 7.16924 21.6073L7.17131 21.6175C7.1964 21.7404 7.22964 21.9031 7.27857 22.0532C7.32475 22.1948 7.40838 22.4041 7.57959 22.5532C7.79765 22.7431 8.08286 22.7623 8.26894 22.7615C8.4687 22.7607 8.70193 22.7315 8.92324 22.7038L8.94208 22.7014C9.25348 22.6625 9.57924 22.6222 9.91665 22.6222C10.5324 22.6222 10.927 22.8894 11.5463 23.3285L11.5505 23.3315C11.765 23.4836 12.0051 23.6539 12.2781 23.8214C13.1919 24.3821 13.9344 24.3773 14.3552 24.3745C14.3829 24.3744 14.4093 24.3742 14.4342 24.3742C14.4591 24.3742 14.4856 24.3744 14.5136 24.3746C14.935 24.3774 15.6972 24.3824 16.6115 23.8214C16.8845 23.6539 17.1247 23.4836 17.3391 23.3315L17.3433 23.3285C17.9626 22.8894 18.3572 22.6222 18.973 22.6222C19.3104 22.6222 19.6362 22.6625 19.9476 22.7014L19.9664 22.7038C20.1877 22.7315 20.4209 22.7607 20.6207 22.7615C20.8068 22.7623 21.092 22.7431 21.31 22.5532C21.4813 22.4041 21.5649 22.1948 21.6111 22.0532C21.66 21.9031 21.6932 21.7404 21.7183 21.6175L21.7204 21.6073C21.7268 21.5758 21.7327 21.5471 21.7384 21.5204C22.1369 21.4661 22.5458 21.3756 22.9116 21.2542C23.3373 21.1129 23.7759 20.9069 24.0408 20.6109L24.0541 20.5961L24.0612 20.5882C24.1094 20.5348 24.1931 20.4419 24.2582 20.3195C24.3326 20.1798 24.3756 20.0186 24.3756 19.8283C24.3756 19.4636 24.1465 19.2324 23.9825 19.1178C23.8966 19.0578 23.81 19.0152 23.7372 18.9868C23.7006 18.9725 23.6635 18.9603 23.6277 18.951C23.6022 18.9443 23.5438 18.9299 23.4764 18.9299C23.3912 18.9299 23.2532 18.9031 23.0651 18.8325C22.8828 18.7642 22.679 18.6648 22.4706 18.5448C22.0504 18.3027 21.6484 17.9987 21.4035 17.754C21.1552 17.5059 20.8228 17.0776 20.5504 16.6599C20.4153 16.4529 20.3018 16.2588 20.224 16.1009C20.185 16.0218 20.1583 15.9585 20.1422 15.9116C20.1344 15.8889 20.1309 15.8749 20.1293 15.8685C20.1315 15.8229 20.1493 15.775 20.2664 15.6992C20.4168 15.6019 20.6349 15.5246 20.9325 15.4232L20.96 15.4139C21.2381 15.3193 21.5893 15.1998 21.8679 15.0127C22.1815 14.802 22.4497 14.4735 22.4497 13.9786C22.4497 13.5829 22.2332 13.2557 21.9798 13.0428C21.7249 12.8287 21.3815 12.6842 21.0264 12.6842C20.6749 12.6842 20.4221 12.8102 20.2559 12.8931L20.2428 12.8996C20.1488 12.9464 20.0895 12.9737 20.0413 12.9882C20.0822 12.382 20.1291 11.5588 20.1291 10.9441C20.1291 10.1097 19.8369 8.79283 18.9819 7.67389ZM10.6379 8.22442C9.9147 9.1645 9.66693 10.2808 9.66693 10.9441C9.66693 11.5592 9.7171 12.4137 9.75945 13.0264C9.77351 13.2299 9.73333 13.4671 9.56219 13.6554C9.38897 13.846 9.15331 13.9079 8.94279 13.9079C8.63881 13.9079 8.40761 13.7924 8.25971 13.7185L8.24254 13.7099C8.07753 13.6278 7.99077 13.5896 7.86322 13.5896C7.7472 13.5896 7.60553 13.6414 7.4932 13.7357C7.37933 13.8314 7.34633 13.925 7.34633 13.9786C7.34633 14.0877 7.38508 14.1657 7.52751 14.2613C7.69572 14.3743 7.93541 14.4593 8.24961 14.5663L8.27697 14.5756C8.5379 14.6643 8.86109 14.7743 9.11614 14.9394C9.40242 15.1247 9.66693 15.4225 9.66693 15.8813C9.66693 16.0016 9.63491 16.1174 9.60485 16.2051C9.57222 16.3002 9.52813 16.4007 9.47873 16.5009C9.37972 16.7017 9.24583 16.9285 9.09867 17.1542C8.80667 17.6019 8.43551 18.086 8.12702 18.3942C7.81514 18.7057 7.34613 19.0559 6.87175 19.3291C6.63285 19.4667 6.38342 19.5901 6.14291 19.6802C5.92762 19.7609 5.69559 19.8241 5.473 19.834C5.46745 19.8364 5.46132 19.8393 5.4549 19.8427C5.44464 19.848 5.43504 19.8538 5.42667 19.8597L5.42239 19.8628C5.42323 19.869 5.42419 19.8736 5.42499 19.8768C5.42677 19.8841 5.42888 19.8892 5.43173 19.8946C5.44045 19.911 5.45422 19.9293 5.50989 19.9912L5.5245 20.0075C5.62479 20.1195 5.87197 20.265 6.26377 20.395C6.63692 20.5188 7.07818 20.6083 7.49506 20.6494C7.70365 20.6699 7.82387 20.8052 7.87475 20.8782C7.92713 20.9532 7.95708 21.0325 7.97459 21.0851C8.00845 21.1869 8.03403 21.3123 8.0542 21.4112L8.05727 21.4263C8.08482 21.5611 8.10891 21.6763 8.14033 21.7727C8.15144 21.8068 8.16169 21.8327 8.17051 21.8517C8.1904 21.8541 8.2209 21.8563 8.26508 21.8562C8.45677 21.8553 8.64869 21.8257 8.83862 21.8019C9.14248 21.7639 9.51852 21.7168 9.91665 21.7168C10.84 21.7168 11.4493 22.1492 12.0379 22.5668L12.071 22.5902C12.2888 22.7447 12.507 22.8993 12.7525 23.0499C13.4442 23.4744 13.9706 23.4714 14.3551 23.4691C14.3822 23.469 14.4085 23.4688 14.4342 23.4688C14.4596 23.4688 14.4858 23.469 14.5128 23.4691C14.9016 23.4713 15.4455 23.4743 16.1371 23.0499C16.3826 22.8993 16.6009 22.7447 16.8187 22.5902L16.8517 22.5668C17.4403 22.1492 18.0496 21.7168 18.973 21.7168C19.3711 21.7168 19.7472 21.7639 20.051 21.8019L20.0602 21.8031C20.3059 21.8338 20.4857 21.8556 20.6246 21.8562C20.6687 21.8563 20.6992 21.8541 20.7191 21.8517C20.7279 21.8327 20.7382 21.8068 20.7493 21.7727C20.7807 21.6764 20.8048 21.5611 20.8324 21.4263L20.8354 21.4112C20.8556 21.3123 20.8812 21.1869 20.9151 21.0851C20.9326 21.0325 20.9625 20.9532 21.0149 20.8782C21.0658 20.8052 21.186 20.6699 21.3946 20.6494C21.8115 20.6083 22.2527 20.5188 22.6259 20.395C23.0177 20.265 23.2648 20.1196 23.3651 20.0075L23.3797 19.9912C23.4354 19.9293 23.4492 19.911 23.4579 19.8946C23.4608 19.8892 23.4629 19.8841 23.4647 19.8769C23.4655 19.8736 23.4664 19.869 23.4673 19.8628L23.463 19.8597C23.4546 19.8538 23.445 19.848 23.4347 19.8427C23.4283 19.8393 23.4222 19.8364 23.4166 19.834C23.1941 19.8241 22.962 19.7609 22.7467 19.6802C22.5062 19.5901 22.2568 19.4667 22.0179 19.3291C21.5435 19.0559 21.0745 18.7057 20.7626 18.3942C20.4541 18.086 20.083 17.6019 19.791 17.1542C19.6438 16.9285 19.5099 16.7017 19.4109 16.5009C19.3615 16.4007 19.3174 16.3002 19.2848 16.2051C19.2547 16.1174 19.2227 16.0016 19.2227 15.8813C19.2227 15.4225 19.4872 15.1247 19.7735 14.9394C20.0286 14.7743 20.3517 14.6643 20.6127 14.5756L20.64 14.5663C20.9542 14.4593 21.1939 14.3743 21.3621 14.2613C21.5046 14.1657 21.5433 14.0877 21.5433 13.9786C21.5433 13.925 21.5103 13.8314 21.3964 13.7357C21.2841 13.6414 21.1424 13.5896 21.0264 13.5896C20.8989 13.5896 20.8121 13.6278 20.6471 13.7099L20.6299 13.7185C20.482 13.7924 20.2508 13.9079 19.9468 13.9079C19.7363 13.9079 19.5007 13.846 19.3274 13.6554C19.1563 13.4671 19.1161 13.2299 19.1302 13.0264C19.1725 12.4137 19.2227 11.5592 19.2227 10.9441C19.2227 10.279 18.9793 9.16266 18.2615 8.22326C17.5602 7.30558 16.388 6.53037 14.4554 6.53037C12.5227 6.53037 11.3446 7.30581 10.6379 8.22442Z" fill="black"/>
<path fill-rule="evenodd" clip-rule="evenodd" d="M10.6379 8.22444C9.91468 9.16452 9.6669 10.2808 9.6669 10.9442C9.6669 11.5593 9.71707 12.4137 9.75942 13.0264C9.77348 13.2299 9.7333 13.4671 9.56217 13.6554C9.38895 13.846 9.15329 13.9079 8.94277 13.9079C8.63879 13.9079 8.40759 13.7924 8.25969 13.7185L8.24252 13.71C8.0775 13.6278 7.99075 13.5896 7.8632 13.5896C7.74717 13.5896 7.60551 13.6414 7.49317 13.7357C7.37931 13.8314 7.3463 13.9251 7.3463 13.9786C7.3463 14.0877 7.38506 14.1657 7.52748 14.2613C7.6957 14.3743 7.93538 14.4593 8.24959 14.5663L8.27694 14.5756C8.53787 14.6644 8.86107 14.7743 9.11611 14.9394C9.4024 15.1247 9.6669 15.4226 9.6669 15.8814C9.6669 16.0017 9.63488 16.1174 9.60482 16.2051C9.57219 16.3002 9.52811 16.4007 9.47871 16.5009C9.3797 16.7018 9.24581 16.9285 9.09864 17.1542C8.80665 17.6019 8.43548 18.086 8.12699 18.3942C7.81512 18.7057 7.3461 19.0559 6.87173 19.3291C6.63282 19.4667 6.3834 19.5901 6.14289 19.6803C5.9276 19.7609 5.69557 19.8241 5.47298 19.834C5.46743 19.8364 5.4613 19.8393 5.45488 19.8427C5.44462 19.848 5.43502 19.8538 5.42665 19.8597L5.42236 19.8628C5.4232 19.869 5.42416 19.8736 5.42496 19.8769C5.42674 19.8841 5.42886 19.8893 5.4317 19.8946C5.44043 19.911 5.45419 19.9293 5.50987 19.9912L5.52447 20.0075C5.62477 20.1196 5.87194 20.265 6.26375 20.395C6.6369 20.5189 7.07815 20.6083 7.49504 20.6494C7.70362 20.6699 7.82384 20.8053 7.87473 20.8782C7.9271 20.9533 7.95706 21.0325 7.97456 21.0851C8.00843 21.1869 8.034 21.3123 8.05418 21.4113L8.05725 21.4263C8.08479 21.5611 8.10888 21.6764 8.14031 21.7727C8.15141 21.8068 8.16167 21.8327 8.17048 21.8518C8.19037 21.8541 8.22087 21.8564 8.26506 21.8562C8.45675 21.8554 8.64867 21.8257 8.8386 21.8019C9.14246 21.7639 9.51849 21.7169 9.91663 21.7169C10.84 21.7169 11.4493 22.1492 12.0379 22.5668L12.0709 22.5902C12.2887 22.7447 12.507 22.8993 12.7525 23.0499C13.4442 23.4744 13.9706 23.4714 14.3551 23.4691C14.3822 23.469 14.4085 23.4688 14.4342 23.4688C14.4596 23.4688 14.4858 23.469 14.5127 23.4691C14.9015 23.4713 15.4455 23.4743 16.1371 23.0499C16.3826 22.8993 16.6009 22.7447 16.8187 22.5902L16.8517 22.5668C17.4403 22.1492 18.0496 21.7169 18.973 21.7169C19.3711 21.7169 19.7471 21.7639 20.051 21.8019L20.0602 21.8031C20.3059 21.8338 20.4857 21.8556 20.6245 21.8562C20.6687 21.8564 20.6992 21.8541 20.7191 21.8518C20.7279 21.8327 20.7382 21.8068 20.7493 21.7727C20.7807 21.6764 20.8048 21.5611 20.8323 21.4263L20.8354 21.4112C20.8556 21.3123 20.8812 21.1869 20.915 21.0851C20.9325 21.0325 20.9625 20.9533 21.0149 20.8782C21.0657 20.8053 21.186 20.6699 21.3946 20.6494C21.8114 20.6083 22.2527 20.5189 22.6258 20.395C23.0176 20.265 23.2648 20.1196 23.3651 20.0075L23.3797 19.9912C23.4354 19.9293 23.4492 19.911 23.4579 19.8946C23.4607 19.8893 23.4628 19.8841 23.4646 19.8769C23.4654 19.8736 23.4664 19.869 23.4672 19.8628L23.4629 19.8597C23.4546 19.8538 23.445 19.848 23.4347 19.8427C23.4283 19.8393 23.4222 19.8364 23.4166 19.834C23.194 19.8241 22.962 19.7609 22.7467 19.6803C22.5062 19.5901 22.2568 19.4667 22.0179 19.3291C21.5435 19.0559 21.0745 18.7057 20.7626 18.3942C20.4541 18.086 20.0829 17.6019 19.7909 17.1542C19.6438 16.9285 19.5099 16.7018 19.4109 16.5009C19.3615 16.4007 19.3174 16.3002 19.2848 16.2051C19.2547 16.1174 19.2227 16.0016 19.2227 15.8814C19.2227 15.4226 19.4872 15.1247 19.7735 14.9394C20.0285 14.7743 20.3517 14.6644 20.6126 14.5756L20.64 14.5663C20.9542 14.4593 21.1939 14.3743 21.3621 14.2613C21.5045 14.1657 21.5433 14.0877 21.5433 13.9786C21.5433 13.9251 21.5103 13.8314 21.3964 13.7357C21.2841 13.6414 21.1424 13.5896 21.0264 13.5896C20.8988 13.5896 20.8121 13.6278 20.6471 13.71L20.6299 13.7185C20.482 13.7924 20.2508 13.9079 19.9468 13.9079C19.7363 13.9079 19.5006 13.846 19.3274 13.6554C19.1563 13.4671 19.1161 13.2299 19.1302 13.0264C19.1725 12.4137 19.2227 11.5593 19.2227 10.9442C19.2227 10.279 18.9793 9.16268 18.2614 8.22327C17.5602 7.3056 16.3879 6.53039 14.4554 6.53039C12.5227 6.53039 11.3446 7.30583 10.6379 8.22444Z" fill="white"/>
</svg>
