<svg width="29" height="30" viewBox="0 0 29 30" fill="none" xmlns="http://www.w3.org/2000/svg">
<path d="M16.7555 1.95246L16.744 7.72797L16.7324 13.5035L16.2015 12.1627V12.1593L15.5129 25.0167C16.19 26.7218 16.5516 27.6328 16.5555 27.6363C16.5593 27.6397 16.944 27.6603 17.4095 27.681C18.8176 27.7428 20.5641 27.8769 21.8914 28.0247C22.1992 28.0591 22.4608 28.0763 22.48 28.0626C22.4992 28.0488 22.5031 22.1702 22.4992 14.9955L22.4877 1.95246H16.7555Z" fill="url(#paint0_linear_0_148)"/>
<path d="M6.38616 1.93521V14.992C6.38616 22.1736 6.39385 28.0557 6.40539 28.066C6.41693 28.0763 6.91321 28.0316 7.51336 27.9732C8.1135 27.9147 8.94063 27.8391 9.35227 27.8082C9.9832 27.76 11.876 27.6535 12.0914 27.65C12.1568 27.65 12.1607 27.3578 12.1683 22.1186L12.1799 16.5871L12.6377 17.7423C12.7069 17.921 12.73 17.976 12.7993 18.1514L13.4879 5.29738C13.3417 4.92954 13.4187 5.12206 13.2532 4.70264C12.6916 3.28283 12.2145 2.08303 12.1953 2.02803L12.1568 1.93177H6.38616V1.93521Z" fill="url(#paint1_linear_0_148)"/>
<path d="M6.38616 1.93521L12.1761 16.5974V16.5905L12.6339 17.7456C15.1768 24.1777 16.5426 27.6292 16.5503 27.6361C16.5541 27.6396 16.9388 27.6602 17.4043 27.6808C18.8124 27.7427 20.5589 27.8768 21.8862 28.0246C22.1901 28.059 22.4556 28.0762 22.471 28.0624L16.7311 13.4999V13.5034L16.2002 12.1626C15.6808 10.8528 15.3346 9.97619 13.2456 4.70263C12.6839 3.28282 12.2069 2.08303 12.1876 2.02803L12.1491 1.93177H9.26765L6.38616 1.93521Z" fill="#E30A17"/>
<defs>
<linearGradient id="paint0_linear_0_148" x1="25.0846" y1="21.4785" x2="15.801" y2="25.4046" gradientUnits="userSpaceOnUse">
<stop stop-color="#B20610"/>
<stop offset="0.255959" stop-color="#B20610"/>
<stop offset="1" stop-color="#590004"/>
</linearGradient>
<linearGradient id="paint1_linear_0_148" x1="3.60401" y1="7.66046" x2="13.6416" y2="3.46449" gradientUnits="userSpaceOnUse">
<stop stop-color="#B20610"/>
<stop offset="0.255959" stop-color="#B20610"/>
<stop offset="1" stop-color="#590004"/>
</linearGradient>
</defs>
</svg>
