<svg width="18" height="18" viewBox="0 0 18 18" fill="none" xmlns="http://www.w3.org/2000/svg">
<path d="M2.25 8.25L2.36466 10.6702C2.48785 13.2514 2.54945 14.542 3.41914 15.3335C4.28882 16.125 5.64537 16.125 8.35847 16.125H9.64153C12.3546 16.125 13.7112 16.125 14.5809 15.3335C15.4506 14.542 15.5121 13.2514 15.6353 10.6702L15.75 8.25" stroke="#101419" stroke-width="1.40625" stroke-linecap="round" stroke-linejoin="round"/>
<path d="M2.13539 7.83229C3.40986 10.2558 6.2844 11.25 9 11.25C11.7156 11.25 14.5901 10.2558 15.8646 7.83229C16.473 6.67542 16.0123 4.5 14.514 4.5H3.486C1.98767 4.5 1.52702 6.67542 2.13539 7.83229Z" stroke="#101419" stroke-width="1.40625"/>
<path d="M8.99995 8.25H9.00669" stroke="#101419" stroke-width="1.875" stroke-linecap="round" stroke-linejoin="round"/>
<path d="M11.9999 4.5L11.9337 4.2682C11.6037 3.11317 11.4387 2.53565 11.0458 2.20533C10.653 1.875 10.1312 1.875 9.08763 1.875H8.91219C7.8686 1.875 7.34681 1.875 6.95398 2.20533C6.56115 2.53565 6.39615 3.11317 6.06614 4.2682L5.99991 4.5" stroke="#101419" stroke-width="1.40625"/>
</svg>
