<svg width="20" height="20" viewBox="0 0 20 20" fill="none" xmlns="http://www.w3.org/2000/svg">
<path d="M2.14965 7.18754C2.09073 6.69606 2.06127 6.45033 2.1027 6.24917C2.22093 5.67512 2.72593 5.20966 3.39894 5.0544C3.63478 5 3.93085 5 4.52298 5H15.477C16.0692 5 16.3652 5 16.6011 5.0544C17.2741 5.20966 17.7791 5.67512 17.8973 6.24917C17.9388 6.45033 17.9093 6.69606 17.8504 7.18754C17.7153 8.31391 17.0826 8.93004 15.876 9.28526L12.4 10.3086C11.2118 10.6584 10.6176 10.8333 10 10.8333C9.3824 10.8333 8.78825 10.6584 7.59997 10.3086L4.12402 9.28526C2.91746 8.93004 2.28468 8.31391 2.14965 7.18754Z" stroke="#563BDB" stroke-width="1.25"/>
<path d="M2.88569 8.75L2.72215 10.6464C2.42901 14.0459 2.28243 15.7456 3.22278 16.8311C4.16313 17.9167 5.78209 17.9167 9.02001 17.9167H10.98C14.2179 17.9167 15.8369 17.9167 16.7772 16.8311C17.7176 15.7456 17.571 14.0459 17.2778 10.6464L17.1143 8.75" stroke="#563BDB" stroke-width="1.25" stroke-linecap="round" stroke-linejoin="round"/>
<path d="M12.9167 4.58331L12.8523 4.36255C12.5314 3.26252 12.371 2.71251 11.9891 2.39791C11.6072 2.08331 11.0999 2.08331 10.0853 2.08331H9.91472C8.90013 2.08331 8.39283 2.08331 8.01091 2.39791C7.629 2.71251 7.46857 3.26252 7.14773 4.36255L7.08334 4.58331" stroke="#563BDB" stroke-width="1.25"/>
</svg>
