<svg width="18" height="18" viewBox="0 0 18 18" fill="none" xmlns="http://www.w3.org/2000/svg">
<path d="M2.69238 13.6327C2.58041 13.5556 2.47624 13.4689 2.37868 13.3713C1.5 12.4926 1.5 11.0784 1.5 8.25C1.5 5.42157 1.5 4.00736 2.37868 3.12868C3.25736 2.25 4.67157 2.25 7.5 2.25H10.5C13.3284 2.25 14.7426 2.25 15.6213 3.12868C16.5 4.00736 16.5 5.42157 16.5 8.25C16.5 11.0784 16.5 12.4926 15.6213 13.3713C15.5238 13.4689 15.4196 13.5556 15.3076 13.6327" stroke="#1E212C" stroke-width="1.40625" stroke-linecap="round"/>
<path d="M6.51473 12.6945C5.86629 13.0894 4.16613 13.8957 5.20164 14.9046C5.70748 15.3975 6.27085 15.75 6.97915 15.75H11.0209C11.7292 15.75 12.2925 15.3975 12.7984 14.9046C13.8339 13.8957 12.1337 13.0894 11.4853 12.6945C9.96471 11.7685 8.0353 11.7685 6.51473 12.6945Z" stroke="#101419" stroke-width="1.40625" stroke-linecap="round" stroke-linejoin="round"/>
<path d="M10.875 8.25C10.875 9.28553 10.0355 10.125 9 10.125C7.96447 10.125 7.125 9.28553 7.125 8.25C7.125 7.21447 7.96447 6.375 9 6.375C10.0355 6.375 10.875 7.21447 10.875 8.25Z" stroke="#1E212C" stroke-width="1.40625"/>
</svg>
