<svg width="20" height="20" viewBox="0 0 20 20" fill="none" xmlns="http://www.w3.org/2000/svg">
<path fill-rule="evenodd" clip-rule="evenodd" d="M8.27228 1.66699H11.7276C13.2471 1.66697 14.4719 1.66695 15.4352 1.79646C16.4353 1.93093 17.2774 2.21859 17.9462 2.88738C18.615 3.55618 18.9027 4.39826 19.0371 5.39838C19.1666 6.36168 19.1666 7.58649 19.1666 9.10605V9.22794C19.1666 10.7475 19.1666 11.9723 19.0371 12.9356C18.9027 13.9357 18.615 14.7778 17.9462 15.4466C17.8023 15.5905 17.6475 15.7195 17.481 15.8341C17.1019 16.0952 16.583 15.9995 16.322 15.6204C16.061 15.2413 16.1567 14.7224 16.5358 14.4614C16.6181 14.4048 16.6948 14.341 16.7677 14.2681C17.0752 13.9606 17.2757 13.5288 17.3853 12.7135C17.4982 11.8742 17.4999 10.7619 17.4999 9.16699C17.4999 7.57209 17.4982 6.45974 17.3853 5.62046C17.2757 4.80515 17.0752 4.37341 16.7677 4.06589C16.4602 3.75838 16.0284 3.55788 15.2131 3.44827C14.3738 3.33543 13.2615 3.33366 11.6666 3.33366H8.33325C6.73835 3.33366 5.626 3.33543 4.78672 3.44827C3.97141 3.55788 3.53967 3.75838 3.23215 4.06589C2.92464 4.37341 2.72414 4.80515 2.61453 5.62046C2.50169 6.45974 2.49992 7.57209 2.49992 9.16699C2.49992 10.7619 2.50169 11.8742 2.61453 12.7135C2.72414 13.5288 2.92464 13.9606 3.23215 14.2681C3.30502 14.341 3.38177 14.4048 3.46406 14.4614C3.84313 14.7224 3.93882 15.2413 3.67781 15.6204C3.4168 15.9995 2.89791 16.0952 2.51884 15.8341C2.35232 15.7195 2.19758 15.5905 2.05364 15.4466C1.38485 14.7778 1.09719 13.9357 0.962723 12.9356C0.833211 11.9723 0.83323 10.7475 0.833253 9.22796V9.10602C0.83323 7.58648 0.833211 6.36168 0.962723 5.39838C1.09719 4.39826 1.38485 3.55618 2.05364 2.88738C2.72244 2.21859 3.56452 1.93093 4.56464 1.79646C5.52794 1.66695 6.75274 1.66697 8.27228 1.66699Z" fill="black"/>
<path d="M6.86198 13.9201C6.04325 14.4905 3.89658 15.6552 5.20405 17.1126C5.84273 17.8245 6.55406 18.3337 7.44838 18.3337H12.5515C13.4459 18.3337 14.1572 17.8245 14.7959 17.1126C16.1033 15.6552 13.9567 14.4905 13.1379 13.9201C11.218 12.5826 8.7819 12.5826 6.86198 13.9201Z" fill="black"/>
<path d="M12.7083 9.37533C12.7083 10.8711 11.4957 12.0837 9.99996 12.0837C8.50419 12.0837 7.29163 10.8711 7.29163 9.37533C7.29163 7.87955 8.50419 6.66699 9.99996 6.66699C11.4957 6.66699 12.7083 7.87955 12.7083 9.37533Z" fill="black"/>
</svg>
