<svg width="20" height="20" viewBox="0 0 20 20" fill="none" xmlns="http://www.w3.org/2000/svg">
<path fill-rule="evenodd" clip-rule="evenodd" d="M13.8029 1.12731C12.9844 1.04168 11.957 1.04169 10.6728 1.0417H9.94335C8.36589 1.04169 7.10431 1.04167 6.11428 1.16741C5.09384 1.29701 4.23941 1.57257 3.55704 2.21717C2.86771 2.86834 2.56656 3.69487 2.42612 4.68162C2.29166 5.62633 2.29168 6.82619 2.29171 8.30847V13.4333C2.2917 14.0993 2.2917 14.6389 2.32065 15.0794C2.35047 15.5332 2.41349 15.938 2.56621 16.3248C3.00688 17.4409 3.93058 18.3028 5.0777 18.7069C5.79337 18.9591 7.02011 18.9588 8.31595 18.9583C10.6823 18.9586 12.0878 18.9588 13.2399 18.5529C15.0899 17.9011 16.568 16.5155 17.2708 14.7354C17.5051 14.1421 17.6088 13.5048 17.6591 12.7408C17.7084 11.9902 17.7084 11.063 17.7084 9.88111V7.7282C17.7084 6.52146 17.7084 5.54425 17.6168 4.76315C17.5217 3.95198 17.319 3.25374 16.8442 2.65452C16.5982 2.34412 16.3077 2.07014 15.9824 1.8401C15.3618 1.40121 14.6441 1.21531 13.8029 1.12731ZM4.66926 3.40328C4.99692 3.09376 5.46031 2.89227 6.31801 2.78334C7.19426 2.67205 8.35281 2.67052 10.0001 2.67052H10.627C11.9676 2.67052 12.9102 2.67155 13.6347 2.74734C14.3463 2.82179 14.7496 2.96076 15.0478 3.17162C15.249 3.31391 15.426 3.48148 15.5741 3.66845C15.7871 3.93719 15.9283 4.29785 16.0052 4.95351C16.0843 5.62831 16.0856 6.50942 16.0856 7.77896L16.0857 10.1958C16.0857 10.4183 16.0855 10.9504 15.8517 11.3439C15.7076 11.5864 15.5231 11.789 15.3335 11.8922C15.0281 12.0584 14.6779 12.1529 14.3057 12.1529L13.4387 12.1225C13.122 12.1159 12.7524 12.1259 12.3956 12.2215C11.7006 12.4077 11.1578 12.9506 10.9715 13.6456C10.8759 14.0023 10.8659 14.372 10.8725 14.6887L10.9029 15.5557C10.9029 15.9454 10.7993 16.2847 10.6181 16.6C10.5126 16.7839 10.3286 16.9521 10.0746 17.0999C9.68953 17.3239 9.22836 17.326 8.94656 17.3273C8.66477 17.3286 8.36745 17.3295 8.11907 17.3295C6.59064 17.3295 6.0347 17.3179 5.61523 17.1701C4.88804 16.9139 4.33329 16.3792 4.07488 15.7247C4.01018 15.5609 3.96448 15.3455 3.93995 14.9722C3.91494 14.5917 3.91453 14.1059 3.91453 13.4057V8.37125C3.91453 6.8112 3.91647 5.72813 4.03263 4.91198C4.1447 4.12457 4.34856 3.70623 4.66926 3.40328Z" fill="#1043FF"/>
<path fill-rule="evenodd" clip-rule="evenodd" d="M5.83334 5.83333C5.83334 5.3731 6.20644 5 6.66668 5H12.5C12.9602 5 13.3333 5.3731 13.3333 5.83333C13.3333 6.29357 12.9602 6.66667 12.5 6.66667H6.66668C6.20644 6.66667 5.83334 6.29357 5.83334 5.83333Z" fill="#1043FF"/>
<path fill-rule="evenodd" clip-rule="evenodd" d="M5.83334 9.16668C5.83334 8.70644 6.20644 8.33334 6.66668 8.33334H9.16668C9.62691 8.33334 10 8.70644 10 9.16668C10 9.62691 9.62691 10 9.16668 10H6.66668C6.20644 10 5.83334 9.62691 5.83334 9.16668Z" fill="#1043FF"/>
</svg>
