<svg width="18" height="18" viewBox="0 0 18 18" fill="none" xmlns="http://www.w3.org/2000/svg">
<g clip-path="url(#clip0_1_1816)">
<path d="M11.2501 12.75C10.6505 13.2168 9.8628 13.5 9.00012 13.5C8.13744 13.5 7.34976 13.2168 6.75012 12.75" stroke="#563BDB" stroke-width="1.40625" stroke-linecap="round"/>
<path d="M1.76366 9.91009C1.4989 8.18718 1.36651 7.32573 1.69224 6.56203C2.01797 5.79834 2.74064 5.27582 4.18597 4.2308L5.26586 3.45C7.06384 2.15 7.96282 1.5 9.00012 1.5C10.0374 1.5 10.9364 2.15 12.7344 3.45L13.8143 4.2308C15.2596 5.27582 15.9823 5.79834 16.308 6.56203C16.6337 7.32573 16.5013 8.18718 16.2366 9.91009L16.0108 11.3793C15.6355 13.8217 15.4478 15.0429 14.5719 15.7714C13.6959 16.5 12.4154 16.5 9.85423 16.5H8.14601C5.58487 16.5 4.3043 16.5 3.42837 15.7714C2.55244 15.0429 2.36477 13.8217 1.98944 11.3793L1.76366 9.91009Z" stroke="#563BDB" stroke-width="1.40625" stroke-linejoin="round"/>
</g>
<defs>
<clipPath id="clip0_1_1816">
<rect width="18" height="18" fill="white"/>
</clipPath>
</defs>
</svg>
