<svg width="16" height="16" viewBox="0 0 16 16" fill="none" xmlns="http://www.w3.org/2000/svg">
<path d="M9.2937 4.22466C10.3823 4.84312 11.2378 5.32912 11.8473 5.77431C12.4609 6.22257 12.9147 6.69109 13.0773 7.30876C13.1965 7.76175 13.1965 8.23824 13.0773 8.69123C12.9147 9.3089 12.4609 9.77743 11.8473 10.2257C11.2378 10.6709 10.3823 11.1569 9.29374 11.7753L9.29373 11.7753C8.24214 12.3728 7.35536 12.8766 6.68216 13.1629C6.00354 13.4515 5.38487 13.5978 4.78358 13.4274C4.34169 13.3022 3.93962 13.0645 3.61572 12.7378C3.17614 12.2943 2.99968 11.6813 2.9162 10.9436C2.83333 10.2113 2.83334 9.25265 2.83334 8.0334V8.03339V7.9666V7.96659C2.83334 6.74734 2.83333 5.78872 2.9162 5.05642C2.99968 4.31873 3.17614 3.70574 3.61572 3.26223C3.93962 2.93544 4.34169 2.69777 4.78358 2.57255C5.38487 2.40216 6.00354 2.54846 6.68216 2.8371C7.35536 3.12343 8.24212 3.62722 9.2937 4.22466Z" fill="#1E212C"/>
</svg>
