<svg width="20" height="20" viewBox="0 0 20 20" fill="none" xmlns="http://www.w3.org/2000/svg">
<path d="M4.37499 14.1667C4.37499 14.5119 4.65481 14.7917 4.99999 14.7917C5.34517 14.7917 5.62499 14.5119 5.62499 14.1667H4.37499ZM17.6011 2.39892L18.043 1.95698V1.95698L17.6011 2.39892ZM13.5018 15.8205L14.1114 15.6826L13.5018 15.8205ZM1.81052 15.8205L1.20093 15.9584L1.81052 15.8205ZM1.82871 14.4797L2.3165 14.8704L1.82871 14.4797ZM9.99999 2.29169H13.3333V1.04169H9.99999V2.29169ZM17.7083 6.66669V15H18.9583V6.66669H17.7083ZM5.62499 14.1667V6.66669H4.37499V14.1667H5.62499ZM9.99999 1.04169C8.83915 1.04169 7.90564 1.04036 7.17353 1.13879C6.42344 1.23964 5.79188 1.45538 5.29028 1.95698L6.17416 2.84086C6.4048 2.61023 6.72861 2.45985 7.34009 2.37764C7.96955 2.29301 8.80381 2.29169 9.99999 2.29169V1.04169ZM5.62499 6.66669C5.62499 5.47051 5.62632 4.63625 5.71095 4.00679C5.79316 3.39531 5.94353 3.0715 6.17416 2.84086L5.29028 1.95698C4.78868 2.45858 4.57294 3.09014 4.47209 3.84023C4.37366 4.57234 4.37499 5.50584 4.37499 6.66669H5.62499ZM13.3333 2.29169C14.5295 2.29169 15.3638 2.29301 15.9932 2.37764C16.6047 2.45985 16.9285 2.61023 17.1591 2.84086L18.043 1.95698C17.5414 1.45538 16.9099 1.23964 16.1598 1.13879C15.4277 1.04036 14.4942 1.04169 13.3333 1.04169V2.29169ZM18.9583 6.66669C18.9583 5.50584 18.9597 4.57234 18.8612 3.84023C18.7604 3.09014 18.5446 2.45858 18.043 1.95698L17.1591 2.84086C17.3898 3.0715 17.5402 3.39531 17.6224 4.00679C17.707 4.63625 17.7083 5.47051 17.7083 6.66669H18.9583ZM17.7083 15C17.7083 15.863 17.5506 16.5558 17.2499 17.0142C16.9757 17.4321 16.5511 17.7084 15.828 17.7084V18.9584C16.9498 18.9584 17.7778 18.4884 18.2951 17.6999C18.7858 16.9518 18.9583 15.978 18.9583 15H17.7083ZM15.828 17.7084C15.3883 17.7084 15.0502 17.5222 14.7694 17.1817C14.4741 16.8234 14.2508 16.2985 14.1114 15.6826L12.8922 15.9584C13.0559 16.6821 13.3406 17.4136 13.805 17.9768C14.284 18.5578 14.9574 18.9584 15.828 18.9584V17.7084ZM4.13674 17.7084C3.697 17.7084 3.35891 17.5222 3.07814 17.1817C2.78276 16.8234 2.55946 16.2985 2.42012 15.6826L1.20093 15.9584C1.36464 16.6821 1.64928 17.4136 2.11366 17.9768C2.59266 18.5578 3.26615 18.9584 4.13674 18.9584V17.7084ZM4.13674 18.9584H15.828V17.7084H4.13674V18.9584ZM3.30165 14.7917H11.6526V13.5417H3.30165V14.7917ZM2.42012 15.6826C2.33735 15.3168 2.29693 15.1266 2.29207 14.9885C2.28882 14.8963 2.30257 14.8878 2.3165 14.8704L1.34093 14.0889C1.10412 14.3845 1.03127 14.7039 1.04285 15.0325C1.05281 15.3153 1.12867 15.639 1.20093 15.9584L2.42012 15.6826ZM3.30165 13.5417C2.91601 13.5417 2.54915 13.5397 2.25104 13.5893C1.91907 13.6445 1.59239 13.775 1.34093 14.0889L2.3165 14.8704C2.32406 14.861 2.32725 14.859 2.33432 14.8553C2.34655 14.8491 2.38018 14.835 2.45628 14.8223C2.62825 14.7937 2.87249 14.7917 3.30165 14.7917V13.5417ZM14.1114 15.6826C14.017 15.2652 13.9371 14.9094 13.8489 14.6379C13.764 14.3764 13.6363 14.072 13.3713 13.8605L12.5918 14.8377C12.5554 14.8087 12.5906 14.8102 12.6601 15.0241C12.7263 15.2279 12.7922 15.5165 12.8922 15.9584L14.1114 15.6826ZM11.6526 14.7917C12.0335 14.7917 12.2688 14.7925 12.4395 14.8109C12.6037 14.8286 12.6133 14.8549 12.5918 14.8377L13.3713 13.8605C13.1211 13.6609 12.8329 13.596 12.5732 13.5681C12.32 13.5408 12.0051 13.5417 11.6526 13.5417V14.7917Z" fill="#563BDB"/>
<path d="M8.75 5.83331H14.5833" stroke="#563BDB" stroke-width="1.25" stroke-linecap="round"/>
<path d="M8.75 9.16669H11.6667" stroke="#563BDB" stroke-width="1.25" stroke-linecap="round"/>
</svg>
