<svg width="18" height="18" viewBox="0 0 18 18" fill="none" xmlns="http://www.w3.org/2000/svg">
<g clip-path="url(#clip0_1_1832)">
<path d="M3.79688 12.75C3.79688 13.1383 4.11167 13.4531 4.5 13.4531C4.88833 13.4531 5.20312 13.1383 5.20312 12.75H3.79688ZM15.841 2.15901L16.3382 1.66183V1.66183L15.841 2.15901ZM12.1516 14.2384L12.8374 14.0833V14.0833L12.1516 14.2384ZM1.62948 14.2384L0.943686 14.3936L1.62948 14.2384ZM1.64585 13.0317L2.19461 13.4713L1.64585 13.0317ZM9 2.20312H12V0.796875H9V2.20312ZM15.7969 6V13.5H17.2031V6H15.7969ZM5.20312 12.75V6H3.79688V12.75H5.20312ZM9 0.796875C7.95922 0.796875 7.1079 0.795382 6.43745 0.885521C5.74677 0.97838 5.14375 1.1799 4.66183 1.66183L5.65619 2.65619C5.83328 2.4791 6.09009 2.35112 6.62483 2.27923C7.17979 2.20462 7.91946 2.20312 9 2.20312V0.796875ZM5.20312 6C5.20312 4.91946 5.20462 4.17979 5.27923 3.62483C5.35113 3.09009 5.4791 2.83328 5.65619 2.65619L4.66183 1.66183C4.1799 2.14375 3.97838 2.74677 3.88552 3.43745C3.79538 4.1079 3.79688 4.95922 3.79688 6H5.20312ZM12 2.20312C13.0805 2.20312 13.8202 2.20462 14.3752 2.27923C14.9099 2.35112 15.1667 2.4791 15.3438 2.65619L16.3382 1.66183C15.8563 1.1799 15.2532 0.97838 14.5626 0.885521C13.8921 0.795382 13.0408 0.796875 12 0.796875V2.20312ZM17.2031 6C17.2031 4.95922 17.2046 4.1079 17.1145 3.43745C17.0216 2.74677 16.8201 2.14375 16.3382 1.66183L15.3438 2.65619C15.5209 2.83328 15.6489 3.09009 15.7208 3.62483C15.7954 4.17979 15.7969 4.91946 15.7969 6H17.2031ZM15.7969 13.5C15.7969 14.2637 15.6566 14.8557 15.4073 15.2356C15.188 15.5701 14.8511 15.7969 14.2452 15.7969V17.2031C15.2997 17.2031 16.0903 16.7583 16.5832 16.007C17.0462 15.3012 17.2031 14.3931 17.2031 13.5H15.7969ZM14.2452 15.7969C13.898 15.7969 13.6314 15.6535 13.401 15.374C13.1542 15.0747 12.9601 14.6255 12.8374 14.0833L11.4659 14.3936C11.6159 15.057 11.879 15.7386 12.316 16.2686C12.7694 16.8185 13.4132 17.2031 14.2452 17.2031V15.7969ZM3.72308 15.7969C3.37578 15.7969 3.10923 15.6535 2.87884 15.374C2.63201 15.0747 2.43794 14.6255 2.31527 14.0833L0.943686 14.3936C1.09377 15.057 1.35685 15.7386 1.7938 16.2686C2.2472 16.8185 2.89107 17.2031 3.72308 17.2031V15.7969ZM3.72308 17.2031H14.2452V15.7969H3.72308V17.2031ZM2.9715 13.4531H10.4873V12.0469H2.9715V13.4531ZM2.31527 14.0833C2.27957 13.9255 2.25219 13.804 2.23239 13.699C2.21261 13.5941 2.20495 13.5284 2.20341 13.4847C2.20199 13.4443 2.20655 13.4388 2.20297 13.451C2.19831 13.4668 2.19117 13.4756 2.19461 13.4713L1.0971 12.5921C0.858896 12.8894 0.786673 13.2118 0.798032 13.5342C0.807575 13.805 0.879836 14.1114 0.943686 14.3936L2.31527 14.0833ZM2.9715 12.0469C2.62932 12.0469 2.28535 12.0446 2.00285 12.0916C1.68228 12.145 1.35178 12.2742 1.0971 12.5921L2.19461 13.4713C2.16558 13.5075 2.13125 13.4959 2.23375 13.4788C2.37433 13.4554 2.58035 13.4531 2.9715 13.4531V12.0469ZM12.8374 14.0833C12.7531 13.7104 12.6796 13.3826 12.5978 13.1306C12.5196 12.89 12.3943 12.5819 12.1219 12.3645L11.2449 13.4638C11.1783 13.4107 11.1996 13.378 11.2603 13.5651C11.3175 13.7409 11.3752 13.9931 11.4659 14.3936L12.8374 14.0833ZM10.4873 13.4531C10.8334 13.4531 11.0362 13.4541 11.1805 13.4696C11.3176 13.4844 11.2948 13.5037 11.2449 13.4638L12.1219 12.3645C11.8661 12.1605 11.5754 12.0977 11.3309 12.0714C11.0937 12.0459 10.8014 12.0469 10.4873 12.0469V13.4531Z" fill="#101419"/>
<path d="M7.875 5.25H13.125" stroke="#1E212C" stroke-width="1.40625" stroke-linecap="round"/>
<path d="M7.875 8.24997H10.5" stroke="#1E212C" stroke-width="1.40625" stroke-linecap="round"/>
</g>
<defs>
<clipPath id="clip0_1_1832">
<rect width="18" height="18" fill="white"/>
</clipPath>
</defs>
</svg>
