<svg width="20" height="20" viewBox="0 0 20 20" fill="none" xmlns="http://www.w3.org/2000/svg">
<path d="M12.5 1.66669L12.949 3.65967C13.3298 5.35014 14.6499 6.67028 16.3404 7.05108L18.3334 7.50002L16.3404 7.94896C14.6499 8.32976 13.3298 9.64989 12.949 11.3404L12.5 13.3334L12.0511 11.3404C11.6703 9.64989 10.3501 8.32976 8.65967 7.94896L6.66669 7.50002L8.65967 7.05108C10.3501 6.67028 11.6703 5.35015 12.0511 3.65967L12.5 1.66669Z" stroke="#563BDB" stroke-width="1.25" stroke-linejoin="round"/>
<path d="M5.83335 10L6.15403 11.4236C6.42603 12.631 7.36898 13.574 8.57646 13.846L10 14.1667L8.57646 14.4873C7.36898 14.7593 6.42603 15.7023 6.15403 16.9098L5.83335 18.3333L5.51268 16.9098C5.24068 15.7023 4.29773 14.7593 3.09024 14.4873L1.66669 14.1667L3.09024 13.846C4.29773 13.574 5.24068 12.631 5.51268 11.4236L5.83335 10Z" stroke="#563BDB" stroke-width="1.25" stroke-linejoin="round"/>
</svg>
