<svg width="13" height="8" viewBox="0 0 13 8" fill="none" xmlns="http://www.w3.org/2000/svg">
<path fill-rule="evenodd" clip-rule="evenodd" d="M3.70123 3.43814e-07H9.29879H9.29881C9.92987 -1.03269e-05 10.4496 -1.91151e-05 10.8643 0.0407378C11.2922 0.0827884 11.6901 0.174001 12.0363 0.41348C12.4086 0.67099 12.6973 1.03165 12.8659 1.45139C13.0231 1.84274 13.0217 2.25042 12.9651 2.67446C12.9104 3.08487 12.7917 3.58723 12.6478 4.19581L12.6342 4.25346L12.6342 4.2535C12.4913 4.85789 12.3752 5.34885 12.2469 5.74312C12.1138 6.15203 11.9539 6.50247 11.7001 6.81126C11.4094 7.16499 11.0449 7.45135 10.6321 7.6508C10.2722 7.82467 9.89312 7.89878 9.46236 7.93387C9.04652 7.96774 8.53843 7.96774 7.91185 7.96773H5.08815C4.46158 7.96774 3.9535 7.96774 3.53767 7.93387C3.10691 7.89878 2.72782 7.82467 2.36796 7.6508C1.95515 7.45135 1.59062 7.16498 1.29993 6.81126C1.04617 6.50247 0.886267 6.15203 0.753151 5.74312C0.624805 5.34886 0.508748 4.85789 0.36588 4.2535L0.365878 4.2535L0.352235 4.19578C0.208353 3.58719 0.0895954 3.08487 0.0348787 2.67446C-0.0216545 2.25042 -0.0230266 1.84274 0.13417 1.45139C0.302768 1.03165 0.59147 0.67099 0.96372 0.41348C1.3099 0.174001 1.70781 0.0827884 2.13569 0.0407378C2.55041 -1.9115e-05 3.07015 -1.03269e-05 3.70122 3.43814e-07H3.70123ZM5.66126 2.51611C5.31386 2.51611 5.03223 2.79774 5.03223 3.14515C5.03223 3.49255 5.31386 3.77418 5.66126 3.77418H7.33868C7.68608 3.77418 7.96771 3.49255 7.96771 3.14515C7.96771 2.79774 7.68608 2.51611 7.33868 2.51611H5.66126Z" fill="#C622FF"/>
</svg>
