<svg width="20" height="20" viewBox="0 0 20 20" fill="none" xmlns="http://www.w3.org/2000/svg">
<path fill-rule="evenodd" clip-rule="evenodd" d="M9.18577 1.85605C9.18577 1.40627 9.55039 1.04166 10.0002 1.04166C14.9485 1.04166 18.9585 5.05303 18.9585 9.99999C18.9585 14.947 14.9485 18.9583 10.0002 18.9583C9.55039 18.9583 9.18577 18.5937 9.18577 18.1439C9.18577 17.6942 9.55039 17.3295 10.0002 17.3295C14.0488 17.3295 17.3297 14.0476 17.3297 9.99999C17.3297 5.95242 14.0488 2.67044 10.0002 2.67044C9.55039 2.67044 9.18577 2.30583 9.18577 1.85605ZM7.98423 2.09245C8.14512 2.51247 7.93507 2.98339 7.51505 3.14428C6.74394 3.43968 6.02221 3.84325 5.38699 4.33537C5.03143 4.61083 4.51989 4.54589 4.24443 4.19033C3.96897 3.83477 4.03391 3.32323 4.38947 3.04777C5.1548 2.45485 6.01711 1.9739 6.9324 1.62328C7.35241 1.46238 7.82333 1.67244 7.98423 2.09245ZM3.34205 5.18821C3.724 5.42572 3.84109 5.9279 3.60358 6.30985C3.13657 7.06086 2.8134 7.88177 2.6568 8.72102C2.5743 9.16316 2.149 9.45472 1.70685 9.37222C1.2647 9.28972 0.97315 8.86441 1.05565 8.42226C1.25098 7.37539 1.65119 6.36511 2.22041 5.44974C2.45792 5.06779 2.9601 4.9507 3.34205 5.18821ZM1.70685 10.6278C2.149 10.5453 2.5743 10.8368 2.6568 11.279C2.8134 12.1182 3.13657 12.9391 3.60358 13.6901C3.84109 14.0721 3.724 14.5743 3.34205 14.8118C2.9601 15.0493 2.45792 14.9322 2.22041 14.5502C1.65119 13.6349 1.25098 12.6246 1.05565 11.5777C0.97315 11.1356 1.2647 10.7103 1.70685 10.6278ZM4.24803 15.805C4.52604 15.4515 5.03803 15.3902 5.3916 15.6682C6.02176 16.1637 6.74053 16.5607 7.51384 16.8556C7.93411 17.0158 8.14492 17.4864 7.98469 17.9066C7.82447 18.3269 7.35389 18.5377 6.93361 18.3775C6.02051 18.0294 5.15526 17.5544 4.38486 16.9486C4.03128 16.6706 3.97003 16.1586 4.24803 15.805Z" fill="#69B508"/>
<path d="M7.51446 8.125C7.51446 6.75079 8.6181 5.625 9.99395 5.625C11.3698 5.625 12.4734 6.75079 12.4734 8.125C12.4734 9.49921 11.3698 10.625 9.99395 10.625C8.6181 10.625 7.51446 9.49921 7.51446 8.125Z" fill="#69B508"/>
<path d="M6.22583 13.3068C8.18643 11.2447 11.779 11.132 13.7823 13.3146C13.8956 13.438 13.9546 13.6016 13.9461 13.7689C13.9376 13.9361 13.8624 14.093 13.7373 14.2042C12.7441 15.0876 11.4342 15.625 10.0002 15.625C8.56641 15.625 7.25658 15.0877 6.26343 14.2045C6.13687 14.0919 6.06141 13.9328 6.05432 13.7636C6.04723 13.5944 6.10912 13.4295 6.22583 13.3068Z" fill="#69B508"/>
</svg>
