<svg width="8" height="8" viewBox="0 0 8 8" fill="none" xmlns="http://www.w3.org/2000/svg">
<path fill-rule="evenodd" clip-rule="evenodd" d="M6.84791 7.72609C5.52793 5.80564 2.45719 5.88381 1.14699 7.73342C0.945372 8.01805 0.551184 8.08534 0.266553 7.88372C-0.0180785 7.68209 -0.0853702 7.28791 0.116253 7.00327C1.90237 4.4818 6.04048 4.32135 7.88888 7.0106C8.08646 7.29806 8.0136 7.69125 7.72614 7.88883C7.43869 8.0864 7.04549 8.01354 6.84791 7.72609Z" fill="#C622FF"/>
<path fill-rule="evenodd" clip-rule="evenodd" d="M4.00001 1.26314C3.41866 1.26314 2.94739 1.73442 2.94739 2.31577C2.94739 2.89711 3.41866 3.36839 4.00001 3.36839C4.58136 3.36839 5.05263 2.89711 5.05263 2.31577C5.05263 1.73442 4.58136 1.26314 4.00001 1.26314ZM1.68424 2.31577C1.68424 1.0368 2.72105 0 4.00001 0C5.27897 0 6.31578 1.0368 6.31578 2.31577C6.31578 3.59473 5.27897 4.63153 4.00001 4.63153C2.72105 4.63153 1.68424 3.59473 1.68424 2.31577Z" fill="#C622FF"/>
</svg>
